<svg aria-hidden="true" style="position: absolute; width: 0; height: 0; overflow: hidden;" version="1.1" xmlns="http://www.w3.org/2000/svg" xmlns:xlink="http://www.w3.org/1999/xlink">
<defs>
<symbol id="icon-humen" viewBox="0 0 35 33">
<path fill="#fff" style="fill: var(--color1, #fff)" d="M18 0.375C9.93586 0.375 3.375 6.93586 3.375 15C3.375 23.0641 9.93586 29.625 18 29.625C26.0641 29.625 32.625 23.0641 32.625 15C32.625 6.93586 26.0641 0.375 18 0.375ZM18.1406 7.125C19.1419 7.125 20.1207 7.42191 20.9532 7.97818C21.7857 8.53446 22.4346 9.32511 22.8178 10.2502C23.2009 11.1752 23.3012 12.1931 23.1059 13.1751C22.9105 14.1572 22.4284 15.0592 21.7204 15.7672C21.0123 16.4752 20.1103 16.9574 19.1283 17.1527C18.1462 17.3481 17.1283 17.2478 16.2033 16.8646C15.2782 16.4815 14.4876 15.8326 13.9313 15.0001C13.375 14.1676 13.0781 13.1888 13.0781 12.1875C13.0781 10.8448 13.6115 9.55718 14.5609 8.60777C15.5103 7.65837 16.798 7.125 18.1406 7.125ZM18 27.375C16.2931 27.3757 14.6047 27.0224 13.0413 26.3374C11.4779 25.6524 10.0736 24.6506 8.91703 23.3953C9.53859 20.1764 15.1214 19.5 18 19.5C20.8786 19.5 26.4614 20.1764 27.083 23.3946C25.9266 24.6501 24.5223 25.6521 22.9589 26.3373C21.3955 27.0224 19.7069 27.3757 18 27.375Z"></path>
</symbol>
<symbol id="icon-square" viewBox="0 0 32 32">
<path fill="#ffd686" style="fill: var(--color2, #ffd686)" opacity="0.67" d="M0 0h32v32h-32v-32z"></path>
</symbol>
<symbol id="icon-checked" viewBox="0 0 32 32">
<path fill="#ffd686" style="fill: var(--color2, #ffd686)" opacity="0.67" d="M1.556 1.556v28.889h28.889v-28.889h-28.889zM13.361 23.249l-5.597-6.22 1.652-1.487 3.889 4.321 9.223-10.983 1.704 1.426-10.871 12.943z"></path>
</symbol>
<symbol id="icon-star" viewBox="0 0 32 32">
<path fill="#ff7373" style="fill: var(--color3, #ff7373)" d="M13.818 29.922h4.364l-0.364-10 8.455 5.364 2.182-3.818-8.909-4.636 8.909-4.636-2.182-3.818-8.455 5.364 0.364-10h-4.364l0.364 10-8.455-5.364-2.182 3.818 8.909 4.636-8.909 4.636 2.182 3.818 8.455-5.364-0.364 10z"></path>
</symbol>
</defs>
</svg>
